<?xml version="1.0" encoding="utf-8"?>
<svg version="1.1" width="400px" height="200px" xmlns="http://www.w3.org/2000/svg" xmlns:xlink="http://www.w3.org/1999/xlink" x="0px" y="0px"
	 viewBox="0 0 155 85" style="enable-background:new 0 0 155 85;" xml:space="preserve">
<style type="text/css">
	.st0{fill:#FFFFFF;stroke:#000000;stroke-width:0.25;stroke-miterlimit:10;}
	.st1{fill:#485440;stroke:#000000;stroke-width:0.25;stroke-miterlimit:10;}
	.st2{fill:none;stroke:#000000;stroke-width:0.25;stroke-miterlimit:10;}
	.st3{fill:#FFED00;stroke:#000000;stroke-miterlimit:10;}
	.calculadora {fill:#999;stroke:#999;stroke-miterlimit:10;}
</style>
<g id="logo_qao">
	<g>
		<circle class="st0" cx="103.94" cy="41.98" r="30.43"/>
		<path class="st1" d="M96.03,67.22l0.47-1.88h14.01l0.69,1.88l5-1.88l-1.34-3.02c0,0,2.28-0.74,3.82-2.41l2.01,2.48l3.89-3.49
			l-2.28-2.28l2.28-3.55l2.61,1.21c0,0,2.35-3.82,2.14-4.96l-3.02-0.67l1.01-4.36h3.22v-5.23h-3.15l-0.54-3.89l2.81-0.99l-2.14-4.98
			l-2.81,1.27l-2.35-3.69l2.35-1.88l-3.69-3.75l-2.14,2.01L115,20.9l1.41-2.55l-4.83-2.21l-0.8,2.68l-4.89-0.87l0.27-2.95h-4.69
			l0.4,3.15l-4.89,0.74l-0.8-3.15l-4.76,2.35l1.21,2.61L89,22.91l-2.21-1.74l-3.69,3.35l2.28,1.88l-2.28,3.75l-2.95-1.14l-2.08,5.18
			l3.02,0.45l-0.74,4.06H76.8l0.27,5.67l3.35-0.61l0.4,4.36l-2.95,1.07l2.28,4.89l2.68-1.41l2.35,3.82L82.7,58.1l3.75,3.89
			l2.08-1.94l3.62,2.08l-1.07,2.95L96.03,67.22z"/>
		<path class="st0" d="M86.85,37.43c0,0,1.21,5.82,9.45,4.93l5.63-3.29c0,0-0.8-5.53-9.99-4.88L86.85,37.43z"/>
		<path class="st0" d="M94.96,37.3c0,0-4.22-7.25-10.92-3.11C84.04,34.19,85.85,40.69,94.96,37.3z"/>
		<path class="st0" d="M110.44,43.76c0,0,6.84,4.97,11.93,7.04c0,0,1.41-0.81,1.14-1.88c0,0-11.86-6.1-12.8-6.17L110.44,43.76z"/>
		<path class="st0" d="M99.99,38.69c0,0-12.94-4.69-16.22-4.5"/>
		<polygon class="st0" points="103.66,2.07 101.4,5.82 101.4,63.45 106.22,63.45 106.22,5.82 		"/>
		<path class="st0" d="M106.29,63.26c-1.72,0-3.44,0-5.16,0v4.51h5.16V63.26z"/>
		<polygon class="st0" points="110.71,61.39 106.36,63.45 106.36,67.77 110.71,69.7 		"/>
		<polygon class="st0" points="101.06,63.45 96.97,61.79 96.97,69.5 101.06,68.02 		"/>
		<rect x="101.93" y="64.07" class="st0" width="3.49" height="2.68"/>
		<path class="st0" d="M101.13,67.77c0,0-0.6,1.73,0,3.07c0,0-0.34,0.94-0.27,2.35c0,0-0.34,1.61,0.27,2.61c0,0-0.49,1.27-0.18,2.41
			c0,0-0.09,1.34,0.18,2.01c0,0-1.74,1.74,0,3.02h5.43c0,0,0.6-1.61,0-2.21c0,0,0.4-1.34-0.07-1.94c0,0,0.4-1.41-0.07-1.94
			c0,0,0.41-1.47,0.07-2.48c0,0,0.03-1.67-0.34-2.35c0,0,0.34-1.14,0-2.75c0,0,0.4-1.17,0.13-1.79H101.13z"/>
		<line class="st0" x1="101.46" y1="70.57" x2="105.55" y2="69.16"/>
		<line class="st0" x1="101.46" y1="73.38" x2="105.55" y2="71.84"/>
		<line class="st0" x1="101.46" y1="75.66" x2="105.55" y2="74.39"/>
		<line class="st0" x1="101.46" y1="78.21" x2="105.55" y2="76.87"/>
		<polyline class="st0" points="101.46,80.22 103.66,80.22 105.89,79.08 		"/>
		<path class="st0" d="M102.2,83.24c0,0,0.3,1.61,1.46,1.27c0,0,0.51,0.31,1.29-1.27H102.2z"/>
		<path class="st0" d="M103.67,6.29c0,18.92,0,37.85,0,56.77"/>
		<path class="st0" d="M96.97,43.24c0,0-11.66,7.76-13,7.55c0,0-0.87-0.34-0.87-1.61c0,0,5.43-3.76,13.2-6.83
			C96.3,42.36,96.44,43.04,96.97,43.24z"/>
		<path class="st0" d="M107.09,35.65c0,0-8.11-0.33-8.78,6.17c0,0,0.67,1.94,3.28,3.22h7.04c0,0,2.86-0.64,2.55-2.68
			c0,0-1.91,0-6.42-2.54C104.76,39.8,104.35,38.19,107.09,35.65z"/>
		<path class="st0" d="M104.41,39.6c0,0,1.33-6.09,10.38-5.35c0,0-2.6,2.08-3.34,3.05c0,0,2.28,1.23,6.77,1.37
			C118.22,38.66,115.94,46.31,104.41,39.6z"/>
		<path class="st0" d="M111.58,37.3c0,0,6.37-8.08,10.72-2.99C122.31,34.31,121.64,41.09,111.58,37.3z"/>
		<path class="st0" d="M101.46,45.03c0,0-1.94,1.65-5.43-1.79c0,0,0.78-3.71,3.56-4.71c0,0-1.15,2.07-1.29,3.28
			C98.31,41.81,100.18,44.31,101.46,45.03z"/>
		<path class="st2" d="M96.17,42.75l2.21-0.74c0,0,20.11-7.64,23.99-7.37"/>
	</g>
</g>
<g id="texto_qao">
	<g class="calculadora">
		<path d="M11.31,40.33c-0.11,1.55-1.47,2.02-3.13,2.02c-1.72,0-3.14-0.5-3.14-2.24v-0.33c-0.01-1.74,1.42-2.24,3.14-2.24
			c1.65,0,3.01,0.47,3.13,2.02H9.48c-0.17-0.45-0.68-0.56-1.29-0.56c-0.73,0.01-1.35,0.14-1.34,0.9V40
			c-0.01,0.75,0.61,0.89,1.34,0.9c0.62,0,1.13-0.11,1.29-0.56H11.31z"/>
		<path d="M13.5,37.65h2.13l2.46,4.59h-2.02l-0.36-0.79h-2.3l-0.36,0.79h-2.02L13.5,37.65z M13.94,40.34h1.26l-0.63-1.36
			L13.94,40.34z"/>
		<path d="M20.02,37.64v3.14h3.59v1.46h-5.38v-4.59H20.02z"/>
		<path d="M30.01,40.33c-0.11,1.55-1.47,2.02-3.13,2.02c-1.72,0-3.14-0.5-3.14-2.24v-0.33c-0.01-1.74,1.42-2.24,3.14-2.24
			c1.65,0,3.01,0.47,3.13,2.02h-1.84c-0.17-0.45-0.68-0.56-1.29-0.56c-0.73,0.01-1.35,0.14-1.34,0.9V40
			c-0.01,0.75,0.61,0.89,1.34,0.9c0.62,0,1.13-0.11,1.29-0.56H30.01z"/>
		<path d="M34.98,37.64h1.79v2.47c0.01,1.74-1.42,2.24-3.14,2.24c-1.72,0-3.14-0.5-3.14-2.24v-2.47h1.79V40
			c-0.01,0.76,0.61,0.89,1.35,0.9c0.73-0.01,1.35-0.14,1.34-0.9V37.64z"/>
		<path d="M39.37,37.64v3.14h3.59v1.46h-5.38v-4.59H39.37z"/>
		<path d="M45.56,37.65h2.13l2.46,4.59h-2.02l-0.36-0.79h-2.3l-0.36,0.79h-2.02L45.56,37.65z M45.99,40.34h1.26l-0.63-1.36
			L45.99,40.34z"/>
		<path d="M54.38,37.65c1.26-0.02,2.2,1.04,2.19,2.3c0.01,1.25-0.93,2.31-2.19,2.3h-4.09v-4.59H54.38z M54.04,39.11h-1.96v1.68h1.96
			c0.46,0,0.73-0.38,0.73-0.84C54.77,39.48,54.5,39.11,54.04,39.11z"/>
		<path d="M63.31,39.77v0.33c0.01,1.74-1.41,2.24-3.13,2.24c-1.73,0-3.14-0.51-3.14-2.24v-0.33c-0.01-1.74,1.41-2.24,3.14-2.24
			C61.91,37.53,63.31,38.04,63.31,39.77z M61.52,39.88c0.01-0.75-0.61-0.89-1.34-0.9c-0.73,0.01-1.36,0.15-1.35,0.9V40
			c-0.01,0.75,0.61,0.89,1.35,0.9c0.73-0.01,1.35-0.15,1.34-0.9V39.88z"/>
		<path d="M68.27,37.65c0.95-0.01,1.75,0.79,1.74,1.74c0,0.35-0.09,0.66-0.28,0.94c-0.18,0.28-0.42,0.49-0.72,0.63l1,1.29H68.1
			l-0.87-1.12h-1.6v1.12h-1.79v-4.59H68.27z M65.63,38.99v0.78h2.18c0.11,0,0.2-0.04,0.28-0.11c0.08-0.08,0.12-0.17,0.12-0.28
			c0-0.22-0.17-0.39-0.39-0.39H65.63z"/>
		<path d="M72.61,37.65h2.13l2.46,4.59h-2.02l-0.36-0.79h-2.3l-0.36,0.79h-2.02L72.61,37.65z M73.04,40.34h1.26l-0.63-1.36
			L73.04,40.34z"/>
	</g>
	<g>
		<path class="st3" d="M63.16,61.37c0,6-2.41,9.87-6.42,12.21l6.42,9.3H50.08l-3.96-6.33c-1.45,0.12-2.95,0.19-4.48,0.19
			c-11.81-0.05-21.56-3.42-21.52-15.37v-2.3c-0.05-11.91,9.7-15.33,21.52-15.38c11.81,0.05,21.56,3.47,21.52,15.38V61.37z
			 M50.86,60.62v-0.77c0.07-5.18-4.19-6.07-9.21-6.14c-5.04,0.07-9.28,0.96-9.23,6.14v0.77c-0.05,5.13,4.2,6.07,9.23,6.14
			C46.66,66.69,50.93,65.75,50.86,60.62z"/>
		<path class="st3" d="M77.62,44.49h14.6l16.9,31.5H95.29l-2.48-5.39H77.04l-2.48,5.39H60.72L77.62,44.49z M80.6,62.91h8.65
			l-4.31-9.3L80.6,62.91z"/>
		<path class="st3" d="M150.11,59.05v2.3c0.05,11.91-9.66,15.35-21.49,15.37c-11.86-0.02-21.56-3.47-21.52-15.37v-2.3
			c-0.05-11.93,9.66-15.35,21.52-15.38C140.48,43.67,150.11,47.14,150.11,59.05z M137.83,59.8c0.07-5.13-4.2-6.07-9.21-6.14
			c-5.04,0.07-9.3,1.01-9.23,6.14v0.77c-0.07,5.16,4.2,6.09,9.23,6.16c5.02-0.07,9.28-1.01,9.21-6.16V59.8z"/>
	</g>
</g>
</svg>
